<svg xmlns="http://www.w3.org/2000/svg" xmlns:xlink="http://www.w3.org/1999/xlink" width="76" height="110" viewBox="0 0 76 110"><defs><linearGradient id="a" x1="1" y1="1.13" x2="0" y2="0.426" gradientUnits="objectBoundingBox"><stop offset="0" stop-color="#03a9f4"/><stop offset="1" stop-color="#1976d2"/></linearGradient><clipPath id="c"><rect width="76" height="110" rx="10" transform="translate(95 137)" fill="url(#a)"/></clipPath></defs><path d="M10,0H66A10,10,0,0,1,76,10v90a10,10,0,0,1-10,10H10A10,10,0,0,1,0,100V10A10,10,0,0,1,10,0Z" fill="url(#a)"/><g transform="translate(-95 -137)" clip-path="url(#c)"><path d="M39.81-589.191H0L39.81-629v39.809L79.587-629H141.42l-39.808,39.809H79.587v44.8L39.81-504.851Z" transform="translate(70.586 759.504)" fill="#03a9f4"/></g></svg>